#!OML:ASF Y:\EmotionMaleHayes\Project 1\Capture day 1\Session 1\Male1.ASF
:FULLY-SPECIFIED
:DEGREES
97
root -18.8784 16.6995 1.21947 59.9955 84.1036 49.9114
lowerback 16.6519 2.30964 -9.58712
upperback 5.3618 1.70066 -5.91141
thorax -3.61474 1.05892 -1.22933
lowerneck -22.5017 0.709229 0.212197
upperneck 14.4803 0.834273 0.313382
head 8.16464 0.440741 0.182416
rclavicle 2.46493e-014 6.67916e-014
rhumerus -35.6583 21.2383 -99.626
rradius 50.9853
rwrist -1.72849
rhand -18.0356 -28.0956
rfingers 7.12502
rthumb 8.23601 -57.915
lclavicle 2.46493e-014 6.67916e-014
lhumerus -36.5302 -7.52198 81.4326
lradius 24.746
lwrist 13.316
lhand -33.0525 -20.8623
lfingers 7.12502
lthumb -6.2649 9.02507
rfemur -12.5095 -2.78261 13.5404
rtibia 62.0467
rfoot -9.46198 0.143881
rtoes 5.11513
lfemur -17.3608 1.7064 -24.3808
ltibia 28.6064
lfoot -23.1534 3.43837
ltoes -14.1226
98
root -18.6431 16.7855 1.18147 58.5701 83.4313 48.3862
lowerback 16.1681 2.32462 -9.96387
upperback 5.30145 1.71811 -6.04101
thorax -3.42396 1.06249 -1.145
lowerneck -22.7673 0.786938 0.369301
upperneck 14.8544 0.813521 0.690798
head 8.33535 0.482319 0.284711
rclavicle 2.38542e-015 8.26944e-014
rhumerus -35.8187 18.9183 -98.8651
rradius 48.3225
rwrist -3.53219
rhand -20.5242 -27.6532
rfingers 7.12502
rthumb 5.83374 -57.5529
lclavicle 2.38542e-015 8.26944e-014
lhumerus -34.0817 -5.68777 81.1612
lradius 24.4219
lwrist 14.3258
lhand -33.537 -20.9576
lfingers 7.12502
lthumb -6.73261 8.91538
rfemur -15.4552 -2.77375 13.273
rtibia 63.2218
rfoot -9.88573 0.439972
rtoes 6.72935
lfemur -15.2445 1.60286 -25.0783
ltibia 26.1074
lfoot -22.8827 3.34414
ltoes -12.2595
99
root -18.3947 16.8655 1.15603 63.0375 83.3571 52.8962
lowerback 16.2567 2.10277 -10.1184
upperback 5.0651 1.35484 -6.07546
thorax -3.70835 0.894567 -1.03621
lowerneck -22.9988 0.835024 0.445284
upperneck 15.5298 0.74702 1.19966
head 8.6042 0.515692 0.441301
rclavicle -5.56597e-015 -3.33958e-014
rhumerus -36.4695 16.7598 -98.0432
rradius 46.2586
rwrist -5.17264
rhand -21.3637 -28.993
rfingers 7.12502
rthumb 5.02313 -58.9135
lclavicle -5.56597e-015 -3.33958e-014
lhumerus -32.3904 -4.75566 81.3603
lradius 24.7022
lwrist 16.1313
lhand -33.8906 -21.3556
lfingers 7.12502
lthumb -7.07393 8.50616
rfemur -17.7359 -3.5113 13.2585
rtibia 63.4296
rfoot -11.2541 1.06081
rtoes 3.97793
lfemur -13.063 1.25318 -25.6154
ltibia 23.8774
lfoot -22.3985 3.17966
ltoes -12.9898
100
root -18.1159 16.9586 1.1313 84.0331 83.5273 74.703
lowerback 16.7069 1.23097 -10.2779
upperback 5.4736 0.213428 -6.03904
thorax -3.43855 0.336608 -0.687989
lowerneck -23.3125 0.914204 0.576165
upperneck 15.9642 0.736631 1.53346
head 8.80678 0.560824 0.537784
rclavicle 1.43125e-014 2.06736e-014
rhumerus -36.7807 15.4128 -97.0535
rradius 44.5003
rwrist -7.61483
rhand -22.1088 -30.3621
rfingers 7.12502
rthumb 4.30369 -60.2983
lclavicle 1.43125e-014 2.06736e-014
lhumerus -30.5572 -4.50748 81.9184
lradius 25.5872
lwrist 18.5573
lhand -33.9838 -21.8697
lfingers 7.12502
lthumb -7.16398 7.98904
rfemur -18.1942 -5.97214 12.7102
rtibia 63.0253
rfoot -12.0428 0.87413
rtoes 5.04152
lfemur -10.0413 -0.276324 -26.5913
ltibia 21.7366
lfoot -21.9285 2.13061
ltoes -13.2051
101
root -17.8815 17.0148 1.09446 81.0665 82.8986 71.5299
lowerback 16.4782 1.29861 -10.6466
upperback 5.16246 0.223848 -6.24056
thorax -3.64904 0.352618 -0.704395
lowerneck -23.4863 0.96076 0.756786
upperneck 16.4553 0.635705 1.99877
head 9.00754 0.584906 0.659637
rclavicle -1.03368e-014 -5.88403e-014
rhumerus -37.7076 14.4775 -96.3578
rradius 43.2536
rwrist -10.6462
rhand -22.6747 -31.6548
rfingers 7.12502
rthumb 3.75721 -61.6014
lclavicle -1.03368e-014 -5.88403e-014
lhumerus -29.1338 -5.18368 82.5648
lradius 26.8627
lwrist 21.3381
lhand -33.9369 -22.1089
lfingers 7.12502
lthumb -7.11862 7.75143
rfemur -21.285 -5.87925 12.4551
rtibia 63.6363
rfoot -11.9518 0.401717
rtoes 5.99227
lfemur -8.22926 -0.000988023 -27.4245
ltibia 19.5429
lfoot -21.8648 2.13557
ltoes -13.5495
102
root -17.6457 17.0617 1.06319 77.9177 82.5002 68.2647
lowerback 15.9543 1.35817 -11.0539
upperback 5.11218 0.307593 -6.2029
thorax -3.42472 0.381681 -0.445415
lowerneck -23.7735 1.09318 1.07269
upperneck 16.8192 0.682982 2.08237
head 9.18497 0.643057 0.649509
rclavicle -3.49861e-014 -1.57437e-013
rhumerus -38.4881 14.5182 -95.4395
rradius 42.5146
rwrist -14.2048
rhand -22.6521 -33.0752
rfingers 7.12502
rthumb 3.77911 -63.0214
lclavicle -3.49861e-014 -1.57437e-013
lhumerus -27.4423 -6.07585 83.3811
lradius 28.2981
lwrist 23.8125
lhand -33.6223 -22.0515
lfingers 7.12502
lthumb -6.81499 7.81885
rfemur -23.937 -5.56796 12.4675
rtibia 63.441
rfoot -12.1465 0.18446
rtoes 7.50939
lfemur -6.3797 0.283327 -27.8917
ltibia 17.4425
lfoot -21.7566 2.30932
ltoes -15.1664
103
root -17.4072 17.0972 1.03265 75.9701 82.1534 66.2517
lowerback 15.4218 1.38504 -11.5287
upperback 5.14687 0.359398 -6.03616
thorax -3.10181 0.386829 -0.00409138
lowerneck -24.1917 1.26286 1.24273
upperneck 17.1727 0.824437 2.16658
head 9.38076 0.736076 0.678646
rclavicle 3.18055e-015 9.54166e-015
rhumerus -39.1485 15.0586 -94.2886
rradius 41.9556
rwrist -17.4443
rhand -22.1251 -34.4267
rfingers 7.12502
rthumb 4.28801 -64.3632
lclavicle 3.18055e-015 9.54166e-015
lhumerus -25.7311 -7.18408 84.2593
lradius 30.0071
lwrist 25.7719
lhand -32.8539 -21.924
lfingers 7.12502
lthumb -6.07319 7.96894
rfemur -26.4221 -5.41444 12.5571
rtibia 62.7736
rfoot -12.9195 0.13183
rtoes 3.5938
lfemur -4.48669 0.437835 -28.3249
ltibia 15.4274
lfoot -21.5112 2.31699
ltoes -15.5555
104
root -17.1688 17.1184 1.00217 76.4101 81.6718 66.5763
lowerback 15.0576 1.35738 -12.0902
upperback 5.05494 0.286937 -5.94453
thorax -2.9933 0.34303 0.419004
lowerneck -24.5927 1.3718 1.31079
upperneck 17.6722 0.884859 2.38305
head 9.62613 0.802907 0.761224
rclavicle 2.62396e-014 9.54166e-014
rhumerus -40.1217 15.7048 -93.1733
rradius 41.7309
rwrist -19.8186
rhand -21.3412 -35.5263
rfingers 7.12502
rthumb 5.04494 -65.4462
lclavicle 2.62396e-014 9.54166e-014
lhumerus -24.2012 -8.71649 85.0257
lradius 32.0129
lwrist 27.2949
lhand -31.7624 -21.6704
lfingers 7.12502
lthumb -5.01934 8.25011
rfemur -28.9278 -5.32244 12.3279
rtibia 62.2189
rfoot -13.6332 0.209948
rtoes 1.58152
lfemur -2.70825 0.3742 -29.0609
ltibia 13.5038
lfoot -21.2149 2.27194
ltoes -15.7982
105
root -16.9348 17.1273 0.97607 78.1243 81.2741 68.2369
lowerback 15.1239 1.28493 -12.3585
upperback 4.76779 0.0958292 -6.02326
thorax -3.31846 0.269071 0.508982
lowerneck -24.5883 1.42905 1.52386
upperneck 17.9977 0.802099 2.75139
head 9.74336 0.831429 0.847961
rclavicle 1.51076e-014 3.33958e-014
rhumerus -41.6947 16.187 -92.366
rradius 41.9
rwrist -20.9827
rhand -20.4745 -35.7419
rfingers 7.12502
rthumb 5.88167 -65.6403
lclavicle 1.51076e-014 3.33958e-014
lhumerus -22.9038 -10.8218 85.4272
lradius 33.9986
lwrist 28.2688
lhand -30.6026 -21.4464
lfingers 7.12502
lthumb -3.89939 8.49763
rfemur -31.2021 -5.31175 12.0662
rtibia 61.4164
rfoot -13.8805 -0.0120857
rtoes 1.65615
lfemur -0.987069 0.160652 -29.7544
ltibia 11.6995
lfoot -20.8574 2.31637
ltoes -17.0424
106
root -16.6687 17.1305 0.93495 75.8351 80.7533 66.2971
lowerback 14.5613 1.39109 -12.914
upperback 5.04215 0.301897 -5.87846
thorax -2.73016 0.334412 0.943431
lowerneck -24.6459 1.53174 1.52977
upperneck 17.8023 0.87953 3.03708
head 9.6828 0.901512 0.958118
rclavicle 1.98785e-014 -1.11319e-014
rhumerus -42.7204 17.2712 -91.1239
rradius 42.1681
rwrist -20.9474
rhand -19.1333 -35.3569
rfingers 7.12502
rthumb 7.17648 -65.2152
lclavicle 1.98785e-014 -1.11319e-014
lhumerus -20.9156 -12.6254 85.8137
lradius 35.8746
lwrist 28.5726
lhand -29.6514 -21.4951
lfingers 7.12502
lthumb -2.98085 8.46377
rfemur -32.8358 -4.79208 11.7231
rtibia 60.2482
rfoot -14.2308 -0.122637
rtoes 0.730604
lfemur 1.48098 -0.0694339 -30.5428
ltibia 9.41579
lfoot -20.6364 2.97467
ltoes -16.9154
107
root -16.4399 17.1138 0.910465 79.2542 80.2776 69.7747
lowerback 14.3917 1.19342 -13.6428
upperback 5.13383 -0.00157054 -5.72496
thorax -2.49061 0.168262 1.55604
lowerneck -24.8949 1.62527 1.44814
upperneck 17.7561 0.95804 3.36042
head 9.70742 0.973631 1.09993
rclavicle -1.82882e-014 -4.77083e-014
rhumerus -43.9303 18.8332 -90.1309
rradius 42.6524
rwrist -19.9715
rhand -17.5971 -34.8715
rfingers 7.12502
rthumb 8.65918 -64.6739
lclavicle -1.82882e-014 -4.77083e-014
lhumerus -19.0707 -14.6103 85.9028
lradius 38.0142
lwrist 28.6
lhand -29.0072 -21.7214
lfingers 7.12502
lthumb -2.35863 8.24528
rfemur -34.9226 -4.92891 11.2086
rtibia 59.2724
rfoot -14.7985 -0.368309
rtoes 0.00337602
lfemur 3.11879 -0.333223 -31.4151
ltibia 7.83585
lfoot -20.428 2.9143
ltoes -16.9413
108
root -16.2075 17.0837 0.885648 82.4888 79.8821 73.1222
lowerback 14.9931 1.02582 -13.891
upperback 4.781 -0.422153 -5.77901
thorax -3.14182 0.00728138 1.69372
lowerneck -24.9658 1.69445 1.5963
upperneck 17.9893 0.913646 3.71927
head 9.8049 1.01452 1.20088
rclavicle 1.43125e-014 1.51076e-014
rhumerus -46.0655 20.1027 -89.5579
rradius 43.5753
rwrist -17.3752
rhand -15.3694 -34.5788
rfingers 7.12502
rthumb 10.8085 -64.2807
lclavicle 1.43125e-014 1.51076e-014
lhumerus -17.7376 -17.0583 85.6374
lradius 40.085
lwrist 28.4955
lhand -28.287 -22.0514
lfingers 7.12502
lthumb -1.66313 7.9219
rfemur -36.8167 -5.12449 10.7467
rtibia 58.1095
rfoot -15.1175 -0.480246
rtoes 1.0996
lfemur 4.81251 -0.512523 -32.1515
ltibia 6.35903
lfoot -20.1988 2.92808
ltoes -18.3993
109
root -15.9738 17.0371 0.861488 85.7063 79.5703 76.5253
lowerback 15.0286 0.892679 -14.3317
upperback 4.86108 -0.645212 -5.5852
thorax -3.02859 -0.111647 2.17809
lowerneck -25.0733 1.77067 1.73086
upperneck 17.763 0.933936 3.89777
head 9.74375 1.05407 1.24378
rclavicle 1.19271e-015 5.32743e-014
rhumerus -47.7865 21.5621 -88.6234
rradius 44.6515
rwrist -15.2968
rhand -14.5568 -33.2508
rfingers 7.12502
rthumb 11.5922 -62.9101
lclavicle 1.19271e-015 5.32743e-014
lhumerus -15.3983 -19.2856 85.2608
lradius 41.7983
lwrist 28.1571
lhand -27.4254 -22.438
lfingers 7.12502
lthumb -0.830914 7.54008
rfemur -38.4792 -5.52338 10.3903
rtibia 56.7063
rfoot -15.2238 -0.792878
rtoes 1.84298
lfemur 6.54351 -0.54033 -32.6913
ltibia 5.0186
lfoot -19.9289 2.62796
ltoes -18.7676
110
root -15.7383 16.9727 0.837635 89.706 79.1006 80.6544
lowerback 14.8533 0.681334 -14.8682
upperback 5.05463 -0.918924 -5.43747
thorax -2.66023 -0.272097 2.67208
lowerneck -25.3318 1.83523 1.82827
upperneck 17.55 0.940719 4.09999
head 9.71326 1.08895 1.3013
rclavicle -3.97569e-016 9.54166e-015
rhumerus -49.3399 23.072 -87.7381
rradius 45.8037
rwrist -13.6484
rhand -14.3464 -31.6876
rfingers 7.12502
rthumb 11.7951 -61.3355
lclavicle -3.97569e-016 9.54166e-015
lhumerus -12.7633 -21.3765 84.4641
lradius 43.5949
lwrist 27.6375
lhand -26.9508 -22.9654
lfingers 7.12502
lthumb -0.372528 7.01405
rfemur -40.0189 -6.11913 9.7481
rtibia 55.1517
rfoot -15.4409 -1.01993
rtoes 4.5236
lfemur 8.09834 -0.309647 -33.2637
ltibia 3.93392
lfoot -19.7444 1.59383
ltoes -16.2081
111
root -15.4984 16.8948 0.813445 94.476 78.4208 85.5294
lowerback 15.0351 0.359502 -15.3255
upperback 5.0256 -1.43181 -5.44528
thorax -2.68993 -0.515764 2.99412
lowerneck -25.6232 1.93727 1.93327
upperneck 17.6128 0.969895 4.37608
head 9.78657 1.1497 1.39251
rclavicle 4.77083e-015 2.14687e-014
rhumerus -51.2774 24.7286 -87.2347
rradius 47.0312
rwrist -12.1349
rhand -14.2237 -30.0347
rfingers 7.12502
rthumb 11.9134 -59.6758
lclavicle 4.77083e-015 2.14687e-014
lhumerus -10.4431 -23.367 83.3157
lradius 45.4893
lwrist 27.0671
lhand -26.8132 -23.8956
lfingers 7.12502
lthumb -0.239682 6.08403
rfemur -41.3479 -6.87624 8.75112
rtibia 53.2683
rfoot -15.5011 -1.13872
rtoes 9.04757
lfemur 9.51631 0.224449 -33.8771
ltibia 3.12068
lfoot -19.4755 0.194179
ltoes -14.5318
